<svg xmlns="http://www.w3.org/2000/svg" viewBox="0 0 512 512" width="512" height="512">
  <defs>
    <linearGradient id="grad1" x1="0%" y1="0%" x2="100%" y2="100%">
      <stop offset="0%" style="stop-color:#FF512F;stop-opacity:1" />
      <stop offset="100%" style="stop-color:#DD2476;stop-opacity:1" />
    </linearGradient>
  </defs>
  <rect width="512" height="512" rx="100" fill="url(#grad1)" />
  <path d="M256 120c-44.2 0-80 35.8-80 80 0 12.3 2.8 23.9 7.8 34.2h144.4c5-10.3 7.8-21.9 7.8-34.2 0-44.2-35.8-80-80-80zM160 256v32c0 17.7 14.3 32 32 32h128c17.7 0 32-14.3 32-32v-32H160zm16 112v-16h160v16c0 8.8-7.2 16-16 16H192c-8.8 0-16-7.2-16-16z" fill="white"/>
</svg>
